<?xml version="1.0" standalone="no"?>
<!DOCTYPE svg PUBLIC "-//W3C//DTD SVG 20010904//EN"
 "http://www.w3.org/TR/2001/REC-SVG-20010904/DTD/svg10.dtd">
<svg version="1.0" xmlns="http://www.w3.org/2000/svg"
 width="1021.000000pt" height="289.000000pt" viewBox="0 0 1021.000000 289.000000"
 preserveAspectRatio="xMidYMid meet">

<g transform="translate(0.000000,289.000000) scale(0.100000,-0.100000)"
fill="#000000" stroke="none">
<path d="M503 2806 c-28 -6 -55 -14 -59 -18 -4 -5 -19 -8 -34 -8 -15 0 -35 -9
-46 -21 l-18 -20 79 8 c44 4 98 8 120 7 55 0 235 -34 265 -49 14 -7 36 -17 50
-23 71 -29 98 -43 110 -57 28 -33 48 -37 79 -14 63 46 233 53 356 14 44 -14
98 -34 120 -44 117 -53 135 -59 135 -43 0 15 -88 97 -122 113 -154 77 -256 96
-393 74 -109 -18 -110 -18 -127 -2 -7 6 -65 30 -128 51 -103 35 -127 40 -225
42 -60 1 -133 -3 -162 -10z"/>
<path d="M5920 2588 c-92 -39 -113 -52 -145 -87 -36 -39 -37 -39 -117 -40 -84
-1 -149 -18 -208 -54 -86 -52 -148 -116 -134 -138 4 -7 21 4 44 26 21 21 43
35 48 31 5 -3 21 3 35 14 14 11 65 34 112 51 94 34 83 35 151 -16 9 -6 19 -4
32 8 14 13 21 14 30 5 17 -17 47 9 31 28 -13 16 -4 30 50 79 56 49 136 78 202
71 53 -5 79 4 79 26 0 12 -181 8 -210 -4z"/>
<path d="M7570 2430 c0 -5 -10 -10 -23 -10 -31 0 -40 -10 -24 -28 10 -13 8
-15 -20 -9 -19 4 -46 1 -67 -8 -39 -16 -109 -79 -99 -89 16 -16 77 -3 139 30
37 20 82 38 99 40 16 2 44 6 60 10 23 4 35 1 49 -15 11 -12 29 -21 41 -21 24
0 97 -72 130 -127 22 -38 35 -41 60 -13 11 12 34 28 53 37 19 9 36 23 39 32
19 54 122 121 186 121 100 0 124 -10 212 -86 46 -41 89 -74 95 -74 30 0 -3 57
-82 142 -48 52 -59 58 -115 69 -53 11 -69 10 -125 -5 -96 -28 -163 -55 -186
-77 -30 -27 -123 -27 -154 1 -13 11 -50 35 -82 55 -51 30 -67 35 -122 35 -36
0 -64 -4 -64 -10z"/>
<path d="M2620 2247 c-14 -5 -48 -20 -75 -33 -28 -13 -55 -24 -60 -24 -6 0
-26 -13 -45 -28 -62 -51 -74 -54 -184 -47 -190 12 -309 -24 -387 -116 -24 -28
-48 -57 -54 -63 -18 -21 -35 -56 -28 -56 5 0 24 13 43 30 19 16 48 32 64 36
29 6 38 10 86 34 11 6 29 10 39 10 11 0 22 4 25 9 3 4 29 12 58 15 29 4 69 10
89 13 45 6 122 -28 152 -68 25 -34 43 -37 50 -8 4 14 11 20 20 16 10 -4 17 3
21 19 15 57 175 169 271 189 101 21 147 27 200 27 33 0 50 2 38 5 -12 2 -27
11 -33 19 -7 8 -23 14 -36 14 -12 0 -26 5 -29 10 -8 13 -190 11 -225 -3z"/>
<path d="M6529 2127 c-41 -14 -119 -63 -119 -76 0 -4 12 -13 27 -20 24 -11 29
-9 60 21 34 33 35 33 133 33 54 0 101 3 104 6 5 5 -70 26 -149 43 -11 2 -36
-1 -56 -7z"/>
<path d="M6242 2086 c-18 -7 -40 -20 -50 -30 -16 -18 -15 -18 23 -11 22 4 71
10 110 14 l69 6 -26 18 c-31 19 -77 20 -126 3z"/>
<path d="M4315 1888 c-107 -36 -129 -66 -42 -58 68 7 228 -19 279 -45 17 -8
39 -15 48 -15 9 0 25 -7 36 -15 28 -21 53 -18 63 8 9 24 45 37 159 58 68 13
224 -2 250 -23 21 -18 27 0 7 22 -39 43 -97 61 -206 62 -98 1 -195 -18 -223
-43 -5 -4 -17 -2 -27 4 -14 9 -21 9 -31 -1 -17 -17 -32 -15 -91 12 -94 43
-164 53 -222 34z"/>
<path d="M8585 1670 c-139 -22 -210 -60 -280 -152 -21 -28 -44 -48 -55 -48
-10 0 -22 -4 -25 -10 -3 -5 -30 -10 -58 -11 -159 -1 -313 -97 -341 -211 -5
-23 -4 -26 11 -21 10 4 44 32 76 62 60 57 134 101 172 101 11 0 26 5 32 11 11
11 121 8 160 -6 19 -6 26 0 52 47 38 67 88 118 143 146 47 25 135 42 173 34
15 -2 25 0 25 7 0 6 -10 11 -22 11 -18 0 -20 2 -9 9 9 6 22 6 32 0 31 -16 33
-10 5 16 -15 14 -30 24 -34 24 -4 -1 -29 -5 -57 -9z"/>
<path d="M150 1529 c-19 -4 -47 -11 -62 -15 -16 -3 -28 -13 -28 -21 0 -12 17
-14 108 -8 69 4 117 3 135 -4 15 -6 60 -43 99 -82 l72 -71 45 7 c132 18 160
17 188 -3 16 -10 44 -24 63 -31 19 -6 51 -26 70 -44 19 -17 54 -42 78 -54 35
-18 44 -20 48 -8 6 14 -24 64 -39 65 -10 0 -119 82 -162 122 -36 33 -123 46
-194 30 -51 -12 -66 -5 -100 44 -13 19 -28 34 -33 34 -6 0 -23 11 -40 25 -27
23 -37 25 -121 24 -51 -1 -108 -5 -127 -10z"/>
<path d="M5950 1422 c-30 -2 -59 -7 -64 -13 -6 -5 -17 -9 -25 -9 -20 0 -78
-46 -70 -54 3 -4 23 1 44 10 21 9 71 18 111 21 61 5 80 2 118 -16 25 -11 53
-21 61 -21 8 0 26 -18 40 -40 14 -22 30 -40 35 -40 15 0 90 49 90 58 0 10 70
45 124 62 45 15 124 8 168 -15 38 -19 48 -19 48 -1 0 22 -62 45 -144 56 -101
13 -166 1 -228 -42 -33 -23 -63 -23 -96 0 -52 36 -116 49 -212 44z"/>
<path d="M2837 1347 c-85 -30 -89 -30 -120 -15 -49 25 -75 30 -146 30 -66 -1
-98 -10 -199 -58 -53 -26 -62 -52 -13 -38 14 3 60 13 101 20 41 7 90 16 108
20 27 5 43 0 85 -26 83 -52 111 -51 214 5 l88 48 100 -2 c55 -1 102 -6 103
-11 5 -13 42 -13 42 0 0 6 -4 10 -9 10 -5 0 -16 6 -23 13 -47 48 -202 50 -331
4z"/>
<path d="M5097 1253 c-1 0 -38 -4 -82 -8 -43 -3 -84 -9 -90 -13 -5 -4 -28 -14
-50 -21 -22 -7 -55 -25 -73 -38 -29 -22 -39 -24 -90 -18 -193 22 -382 14 -382
-17 0 -4 60 -8 133 -8 124 0 137 -2 212 -31 72 -28 83 -30 115 -19 19 7 49 25
65 40 35 32 72 51 135 69 25 7 55 17 68 22 13 5 31 9 41 9 10 0 25 8 34 18 14
16 14 17 -10 17 -13 0 -25 -1 -26 -2z"/>
<path d="M9448 987 c-89 -11 -103 -30 -36 -47 30 -9 53 -9 84 -1 24 6 55 11
70 11 30 0 94 -44 94 -64 0 -8 7 -19 15 -26 8 -7 15 -19 15 -27 0 -7 7 -25 16
-38 18 -27 33 -24 87 21 41 34 98 32 164 -6 29 -17 59 -43 67 -58 16 -32 80
-85 90 -75 3 4 6 19 6 34 0 21 -13 39 -55 76 -92 80 -123 93 -218 93 -80 0
-84 1 -113 31 -28 29 -55 45 -119 67 -50 18 -86 20 -167 9z"/>
<path d="M6877 682 c-30 -2 -61 -12 -84 -28 -20 -13 -43 -24 -52 -24 -19 -1
-71 -44 -71 -60 0 -20 71 -11 103 14 30 22 48 28 119 43 45 9 123 -16 166 -53
22 -19 45 -34 50 -34 6 0 29 -24 51 -52 22 -29 46 -59 51 -65 18 -22 48 -14
65 15 9 15 32 38 50 51 30 20 41 22 102 16 75 -8 103 -17 124 -37 75 -73 149
-110 149 -75 0 21 -20 42 -99 106 -52 42 -86 62 -114 67 -22 3 -54 14 -71 23
-27 15 -39 16 -91 6 -33 -6 -71 -17 -84 -24 -23 -13 -27 -11 -48 15 -13 16
-23 32 -23 37 0 4 -8 7 -18 7 -10 0 -22 3 -26 7 -27 27 -157 51 -249 45z"/>
<path d="M9048 666 c-25 -7 -61 -24 -79 -37 -34 -24 -92 -30 -112 -10 -18 18
-125 13 -155 -7 -15 -10 -44 -27 -65 -37 -47 -24 -89 -75 -62 -75 10 0 34 14
56 30 26 21 56 34 96 40 67 11 110 2 187 -40 30 -17 56 -30 59 -30 2 0 12 18
22 40 26 57 85 94 155 94 30 1 74 -3 98 -7 34 -7 42 -6 42 6 0 35 -160 57
-242 33z"/>
<path d="M3685 380 c-12 -4 -27 -15 -34 -24 -10 -12 -31 -16 -85 -16 -40 0
-93 -7 -118 -16 -46 -15 -128 -77 -128 -95 0 -6 -11 -27 -25 -47 -46 -68 -24
-72 37 -7 23 25 46 45 51 45 5 0 23 11 41 25 17 13 41 24 51 24 122 3 126 2
145 -21 l18 -23 25 24 c30 28 133 52 186 43 20 -3 51 -14 69 -24 18 -10 39
-18 47 -18 7 0 35 -18 60 -40 55 -47 65 -49 65 -12 0 45 -33 85 -104 124 -63
35 -73 37 -161 39 -68 2 -96 6 -99 16 -6 15 -12 15 -41 3z"/>
</g>
</svg>
