<?xml version="1.0" standalone="no"?>
<!DOCTYPE svg PUBLIC "-//W3C//DTD SVG 20010904//EN"
 "http://www.w3.org/TR/2001/REC-SVG-20010904/DTD/svg10.dtd">
<svg version="1.0" xmlns="http://www.w3.org/2000/svg"
 width="1280.000000pt" height="1217.000000pt" viewBox="0 0 1280.000000 1217.000000"
 preserveAspectRatio="xMidYMid meet">
<metadata>
Created by potrace 1.15, written by Peter Selinger 2001-2017
</metadata>
<g transform="translate(0.000000,1217.000000) scale(0.100000,-0.100000)"
fill="#000000" stroke="none">
<path d="M1325 4442 l-60 -17 125 -6 c130 -5 175 -19 263 -81 27 -19 27 -19
80 6 68 33 159 56 260 64 l82 8 -58 22 c-74 28 -171 29 -272 1 l-74 -20 -67
20 c-80 25 -193 26 -279 3z"/>
<path d="M1255 4216 c-27 -7 -90 -29 -139 -49 l-89 -37 -81 22 c-146 39 -287
26 -443 -42 -79 -34 -67 -36 89 -14 62 9 134 13 159 11 63 -8 197 -61 250 -99
34 -24 46 -28 58 -20 133 94 327 163 491 175 l45 3 -40 18 c-98 46 -202 56
-300 32z"/>
<path d="M11405 2933 c-46 -7 -135 -34 -135 -40 0 -3 44 -3 99 1 90 6 104 5
166 -19 37 -13 86 -38 110 -54 l43 -29 61 30 c75 36 174 58 264 58 38 0 66 4
63 9 -3 4 -37 19 -76 31 -82 26 -152 24 -258 -9 -63 -19 -64 -19 -120 0 -58
20 -163 31 -217 22z"/>
<path d="M3725 2775 c-44 -7 -100 -20 -125 -28 -44 -15 -42 -15 100 -15 103 0
157 -5 186 -15 62 -23 158 -73 191 -101 l30 -25 32 20 c92 56 257 97 400 101
102 3 102 10 2 50 -85 33 -217 31 -341 -6 l-94 -28 -91 26 c-117 33 -192 38
-290 21z"/>
<path d="M11245 2685 c-27 -8 -83 -27 -124 -44 -88 -37 -90 -37 -194 -10 -113
29 -218 23 -349 -21 -54 -18 -105 -38 -115 -46 -20 -15 7 -14 172 12 78 11 99
11 154 -1 73 -18 206 -77 237 -106 l22 -21 60 42 c103 69 224 113 392 139
l105 17 -82 27 c-93 31 -194 35 -278 12z"/>
<path d="M3562 2465 c-35 -8 -120 -36 -190 -64 l-128 -49 -119 30 c-108 26
-131 29 -230 24 -119 -5 -205 -25 -330 -75 -137 -55 -124 -57 138 -20 173 24
210 18 402 -64 39 -16 91 -45 117 -63 l48 -34 74 50 c141 96 376 175 559 187
48 3 87 9 87 12 0 10 -110 51 -176 67 -73 17 -170 17 -252 -1z"/>
</g>
</svg>
